<svg xmlns="http://www.w3.org/2000/svg" viewBox="0 0 135.467 135.467">
  <g id="yin" class="yin-yang">
    <path class="background" d="M0 135.467c25.4 0 50.8-16.934 67.733-67.734C84.667 16.933 110.067 0 135.467 0v135.467z" fill="#123456" stroke="#fff" stroke-width=".265"/>
    <a href="{{ '/fr/yin' | absolute_url }}">
      <text class="title" style="line-height:1.25;-inkscape-font-specification:'sans-serif Bold';white-space:pre;inline-size:48.6307" x="78.369" y="125.436" transform="matrix(.99751 0 0 1 1.425 -7.654)" font-weight="700" font-size="10.583" font-family="sans-serif" fill="#fff" stroke-width=".265">
        <tspan x="78.369" y="125.436">Expertise</tspan>
      </text>
      <text class="description" style="line-height:1.25;-inkscape-font-specification:sans-serif" x="126.75" y="96.304" transform="scale(1.0006 .9994)" font-size="4.209" font-family="sans-serif" stroke-width=".263" fill="#fff">
        <tspan x="128.75" y="96.304" style="text-align:end" text-anchor="end">Dépasser</tspan>
        <tspan x="127.92" y="101.564" style="text-align:end" text-anchor="end">les incidents</tspan>
      </text>
      <path class="description" fill="#fff" d="M130.704 92.075h1.058v10.583h-1.058z"/>
    </a>
  </g>
  <g id="yang" class="yin-yang">
    <path class="background" d="M135.467 0c-25.4 0-50.8 16.933-67.734 67.733C50.8 118.533 25.4 135.467 0 135.467V0z" fill="#04d" stroke="#fff" stroke-width=".265"/>
    <a href="{{ '/fr/yang' | absolute_url }}">
      <text class="title" style="line-height:1.25;-inkscape-font-specification:'sans-serif Bold'" x="8.001" y="24.776" font-weight="700" font-size="10.583" font-family="sans-serif" fill="#fd4" stroke-width=".265">
        <tspan x="8.001" y="24.776">Conseil</tspan>
      </text>
      <text class="description" style="line-height:1.25;-inkscape-font-specification:sans-serif" x="8.395" y="36.953" font-size="4.233" font-family="sans-serif" fill="#fff" stroke-width=".265">
        <tspan x="8.395" y="36.953">Accompagner</tspan>
        <tspan x="8.395" y="42.244">de la réflexion stratégique</tspan>
        <tspan x="8.395" y="47.536">à l’exploitation des moyens.</tspan>
      </text>
      <path class="description" fill="#fff" d="M3.704 32.808h1.058v16.933H3.704z"/>
    </a>
  </g>
</svg>
