<svg xmlns="http://www.w3.org/2000/svg" preserveAspectRatio="none" viewBox="0 0 100 100">
  <defs/>
  <defs>
    <filter id="f" color-interpolation-filters="sRGB">
      <feFlood flood-color="#000" flood-opacity=".498" result="flood"/>
      <feComposite in="flood" in2="SourceGraphic" operator="in" result="composite1"/>
      <feGaussianBlur in="composite1" result="blur" stdDeviation=".5"/>
      <feOffset dx="-.5" dy="-.5" result="offset"/>
      <feComposite in="SourceGraphic" in2="offset" result="fbSourceGraphic"/>
      <feColorMatrix in="fbSourceGraphic" result="fbSourceGraphicAlpha" values="0 0 0 -1 0 0 0 0 -1 0 0 0 0 -1 0 0 0 0 1 0"/>
      <feFlood flood-color="#000" flood-opacity=".498" result="flood"/>
      <feComposite in="flood" in2="fbSourceGraphic" operator="in" result="composite1"/>
      <feGaussianBlur in="composite1" result="blur" stdDeviation=".5"/>
      <feOffset dx="-1" dy="-1" result="offset"/>
      <feComposite in="fbSourceGraphic" in2="offset" result="composite2"/>
    </filter>
    <filter id="e" color-interpolation-filters="sRGB">
      <feFlood flood-color="#000" flood-opacity=".498" result="flood"/>
      <feComposite in="flood" in2="SourceGraphic" operator="in" result="composite1"/>
      <feGaussianBlur in="composite1" result="blur" stdDeviation=".5"/>
      <feOffset dx="-.5" dy="-.5" result="offset"/>
      <feComposite in="SourceGraphic" in2="offset" result="fbSourceGraphic"/>
      <feColorMatrix in="fbSourceGraphic" result="fbSourceGraphicAlpha" values="0 0 0 -1 0 0 0 0 -1 0 0 0 0 -1 0 0 0 0 1 0"/>
      <feFlood flood-color="#000" flood-opacity=".498" result="flood"/>
      <feComposite in="flood" in2="fbSourceGraphic" operator="in" result="composite1"/>
      <feGaussianBlur in="composite1" result="blur" stdDeviation=".5"/>
      <feOffset dx="-1" dy="-1" result="offset"/>
      <feComposite in="fbSourceGraphic" in2="offset" result="composite2"/>
    </filter>
    <filter id="d" color-interpolation-filters="sRGB">
      <feFlood flood-color="#000" flood-opacity=".498" result="flood"/>
      <feComposite in="flood" in2="SourceGraphic" operator="in" result="composite1"/>
      <feGaussianBlur in="composite1" result="blur" stdDeviation=".5"/>
      <feOffset dx="-1" dy="-1" result="offset"/>
      <feComposite in="SourceGraphic" in2="offset" result="composite2"/>
    </filter>
    <filter id="c" color-interpolation-filters="sRGB">
      <feFlood flood-color="#000" flood-opacity=".498" result="flood"/>
      <feComposite in="flood" in2="SourceGraphic" operator="in" result="composite1"/>
      <feGaussianBlur in="composite1" result="blur" stdDeviation=".5"/>
      <feOffset dx="-1" dy="-1" result="offset"/>
      <feComposite in="SourceGraphic" in2="offset" result="composite2"/>
    </filter>
    <filter id="b" color-interpolation-filters="sRGB">
      <feFlood flood-color="#000" flood-opacity=".498" result="flood"/>
      <feComposite in="flood" in2="SourceGraphic" operator="in" result="composite1"/>
      <feGaussianBlur in="composite1" result="blur" stdDeviation=".5"/>
      <feOffset dx="-1" dy="-1" result="offset"/>
      <feComposite in="SourceGraphic" in2="offset" result="composite2"/>
    </filter>
    <filter id="a" color-interpolation-filters="sRGB">
      <feFlood flood-color="#000" flood-opacity=".498" result="flood"/>
      <feComposite in="flood" in2="SourceGraphic" operator="in" result="composite1"/>
      <feGaussianBlur in="composite1" result="blur" stdDeviation=".5"/>
      <feOffset dx="-1" dy="-1" result="offset"/>
      <feComposite in="SourceGraphic" in2="offset" result="composite2"/>
    </filter>
  </defs>
  <path fill="#00f" d="M0 0v60.574c26.667 0 37.263-15.383 40.372-25.101C49.477 7.011 73.333 1 100 1V0z"/>
  <path fill="#fff" d="M0 0v60.574c26.667 0 37.262-15.384 40.371-25.101C49.477 7.01 73.333 1 100 1V0H45.55A23 23 0 0147 7.95a23 23 0 01-23 23 23 23 0 01-23-23A23 23 0 012.436 0zm5.13 0A18.4 18.4 0 003.3 7.95a18.4 18.4 0 0018.4 18.4 18.4 18.4 0 0018.4-18.4A18.4 18.4 0 0038.275 0zm2.423 3.852c1.706 0 2.686.83 2.996 2.537H9.535c-.117-.576-.276-.906-.564-1.172-.32-.299-.906-.492-1.535-.492-1.504 0-2.444 1.228-2.444 3.222 0 1.942.98 3.178 2.528 3.178.832 0 1.494-.362 1.814-1.002.16-.31.266-.672.352-1.205h1.023c-.235 2.059-1.3 3.082-3.2 3.082-1.013 0-1.78-.288-2.378-.906C4.395 10.336 4 9.237 4 7.957c0-1.259.384-2.367 1.088-3.135.576-.64 1.42-.97 2.465-.97zm27.494.127h.894v1.12h-.894zm2.396 0h.895v7.775h-.895zM14.098 6.006c1.61 0 2.539 1.108 2.539 3.039 0 1.835-.962 2.955-2.53 2.955-1.589 0-2.527-1.12-2.527-2.998 0-1.877.95-2.996 2.518-2.996zm6.46 0c1.078 0 1.77.597 1.77 1.525v4.223h-.885V7.883c0-.672-.448-1.1-1.152-1.1-.917 0-1.514.748-1.514 1.889v3.082h-.896V6.166h.82v.938c.49-.78 1.026-1.098 1.858-1.098zm5.159 0c1.29 0 2.016.618 2.027 1.717h-.94c-.02-.587-.404-.897-1.118-.897-.726 0-1.186.332-1.186.844 0 .395.31.628 1.035.799l.854.203c1.109.267 1.578.725 1.578 1.557 0 1.077-.895 1.771-2.303 1.771-1.461 0-2.188-.62-2.23-1.91h.939c.053.395.117.555.256.715.224.234.63.373 1.11.373.778 0 1.3-.35 1.3-.873 0-.406-.245-.63-.863-.78l-.832-.203c-1.323-.32-1.772-.734-1.772-1.61 0-1.034.843-1.706 2.145-1.706zm5.674 0c1.045 0 1.899.553 2.261 1.47.16.417.225.928.225 1.782H29.76c.01.554.085.875.299 1.195.298.47.778.725 1.343.725.715 0 1.216-.383 1.461-1.12h.897C33.536 11.276 32.65 12 31.37 12c-1.569 0-2.538-1.13-2.538-2.965s1.001-3.03 2.559-3.03zm3.666.16h.884v5.588h-.884zm-20.95.66c-.992 0-1.6.832-1.6 2.176 0 1.355.608 2.176 1.6 2.176.982 0 1.602-.83 1.602-2.143 0-1.387-.599-2.209-1.602-2.209zm17.274 0c-.896 0-1.525.673-1.6 1.707h3.135a.138.138 0 00.012-.064c0-.918-.672-1.643-1.547-1.643z" filter="url(#a)"/>
  <path fill="#fff" d="M100 1C73.333 1 49.477 7.011 40.371 35.473 37.262 45.19 26.667 60.574 0 60.574v14.528c26.667 0 43.333-10.676 50-30.676 6.667-20 23.333-39.121 50-39.121z" filter="url(#b)"/>
  <path fill="#fff" d="M100 5.305c-26.667 0-43.333 19.12-50 39.12-6.667 20-23.333 30.677-50 30.677V80c26.667 0 43.333-10 50-30 6.667-20 23.333-30 50-30z" filter="url(#c)"/>
  <path fill="#00f" d="M100 20c-26.667 0-43.333 10-50 30-6.667 20-23.333 30-50 30v20h100z" filter="url(#d)"/>
  <path fill="#00f" d="M100 21.858c-11.738 0-18.55 1.402-23.749 6.407-5.199 5.004-3.186 16.573-6.773 19.032-7.292 5-12.098-7.275-15.424 2.703C47.387 70 26.667 81.69 0 81.69V100h100z" filter="url(#e)"/>
  <g>
    <path fill="#fff" d="M100 42.635c-26.667 0-51.78 24.02-58.446 44.02C34.887 106.655 26.667 84.9 0 84.9V100h100z"/>
    <path fill="#00f" d="M100 42.635c-26.667 0-51.779 24.021-58.445 44.021-6.667 20-14.888-1.758-41.555-1.758V100h60.666a20 20 0 01-2.166-9.05 20 20 0 0120-20 20 20 0 0120 20 20 20 0 01-2.19 9.05H100zM80.5 74.949a16 16 0 00-16 16A16 16 0 0067.307 100h26.365a16 16 0 002.828-9.05 16 16 0 00-16-16zM66 85.9h1.006V92.8h3.898v.873H66zm5.873 0h.91v1.12h-.91zm5.412 0h.91v1.12h-.91zm-2.795.65h.899v1.537h.93v.725h-.93v3.83c0 .394.106.5.496.5.173 0 .314-.01.433-.041v.746c-.303.053-.52.074-.736.074-.704 0-1.092-.32-1.092-.885v-4.224h-.77v-.725h.77zm7.219 1.377c.725 0 1.278.31 1.732.97v-.81h.832v4.672c0 1.312-.16 2.015-.593 2.527-.368.448-1.094.715-1.938.715-1.331 0-2.166-.63-2.263-1.686h.92c.054.331.141.481.347.641.249.192.616.299 1.027.299.552 0 1.018-.193 1.256-.524.228-.309.325-.768.325-1.525v-.287c-.51.704-1.007 1.002-1.721 1.002-.596 0-1.201-.277-1.623-.746-.466-.533-.715-1.28-.715-2.197 0-1.814.974-3.051 2.414-3.051zm6.328 0c1.06 0 1.927.555 2.295 1.472.162.416.227.928.227 1.782H86.38c.01.554.086.873.303 1.193.303.47.791.727 1.365.727.725 0 1.233-.386 1.482-1.121h.908c-.227 1.215-1.124 1.94-2.423 1.94-1.592 0-2.577-1.13-2.577-2.964 0-1.835 1.018-3.03 2.598-3.03zm5.68 0c1.31 0 2.046.618 2.056 1.717h-.953c-.021-.587-.411-.897-1.136-.897-.736 0-1.202.332-1.202.844 0 .394.313.628 1.05.799l.866.203c1.126.266 1.602.726 1.602 1.558 0 1.078-.91 1.77-2.338 1.77-1.483 0-2.218-.618-2.262-1.908h.952c.054.394.119.553.26.713.227.234.64.375 1.126.375.79 0 1.32-.353 1.32-.875 0-.406-.249-.63-.876-.78l-.844-.203c-1.342-.32-1.797-.735-1.797-1.61 0-1.034.855-1.706 2.176-1.706zm-21.832.16h.898v5.588h-.898zm5.412 0h.898v5.588h-.898zm4.51.66c-.964 0-1.57.832-1.57 2.176 0 1.354.594 2.178 1.58 2.178.952 0 1.537-.812 1.537-2.145 0-1.397-.573-2.209-1.547-2.209zm6.22 0c-.909 0-1.549.672-1.625 1.707h3.184c.01-.021.01-.043.01-.064 0-.918-.681-1.643-1.569-1.643z" filter="url(#f)"/>
  </g>
</svg>
