<svg xmlns="http://www.w3.org/2000/svg" width="512" height="512"><path fill="#fff" d="M168.655 505.84c-18.04-.81-38.2-2.252-44.8-3.202-6.6-.95-14.88-1.66-18.4-1.577-22.326.529-28.93.199-44-2.197-29.057-4.621-35.464-11.448-41.382-44.094-7.503-41.394-10.479-111.792-9.331-220.755 1.076-102.232 3.574-141.409 11.05-173.332 3.88-16.567 7.452-22.501 17.689-29.38 19.76-13.282 82.44-18.967 206.774-18.755 83.77.143 102 1.134 102.854 5.592.306 1.599-5.438 7.705-15.196 16.155-27.412 23.736-46.249 51.318-61.506 90.058-16.163 41.04-22.775 77.3-25.326 138.88-2.17 52.402-10.082 90.745-26.55 128.663-20.713 47.696-45.877 77.283-83.076 97.678-10.93 5.993-5.694 5.612 8.557-.623 38.704-16.933 73.916-61.898 92.826-118.536 12.487-37.4 17.486-66.685 19.451-113.935.821-19.74 2.255-41.7 3.186-48.8C275.48 100.908 324.444 25.39 390.825 8.182c15.329-3.973 30.138-4.162 50.63-.644 19.557 3.357 28.969 7.208 36.494 14.93 8.084 8.298 10.078 14.172 13.715 40.425 12.768 92.147 13.166 274.93.817 374.969-1.405 11.38-3.511 23.87-4.68 27.756-4.976 16.53-16.702 26.4-35.631 29.987-13.535 2.565-50.416 6.653-79.515 8.814-30.845 2.29-164.025 3.218-204 1.421z"/><path fill="#125" d="M189.455 506.603c-74.45-3.484-86.203-4.885-71.931-8.575 29.91-7.733 46.564-16.533 65.468-34.594 28.533-27.26 51.026-69.603 64.03-120.538 6.568-25.72 9.762-50.22 11.267-86.416.821-19.74 2.255-41.7 3.186-48.8C275.48 100.908 324.444 25.39 390.825 8.182c15.329-3.973 30.138-4.162 50.63-.644 19.557 3.357 28.969 7.208 36.494 14.93 8.084 8.298 10.078 14.172 13.715 40.425 12.768 92.147 13.166 274.93.817 374.969-1.405 11.38-3.511 23.87-4.68 27.756-4.976 16.53-16.702 26.4-35.631 29.987-13.535 2.565-50.416 6.653-79.515 8.814-22.054 1.637-159.788 3.28-183.2 2.184zm-133.6-392.519c-16.535-3.99-22.82-17.177-15.255-32.006 4.116-8.067 14.594-16.91 23.727-20.021 8.63-2.94 24.089-3.256 29.896-.61 3.15 1.435 4.56 1.435 5.996 0 3.067-3.068 44.417-2.499 52.465.721 11.966 4.788 14.373 16.566 6.274 30.69-8.107 14.135-25.399 22.712-45.793 22.712-12.31 0-12.184.677-4.453-23.736l5.657-17.864h6.249c3.436 0 6.68.7 7.209 1.554.528.855-.95 7.684-3.287 15.175-5.065 16.248-4.617 19.117 2.596 16.603 12.605-4.394 23.543-21.861 19.393-30.969-2.655-5.828-7.877-7.163-28.022-7.163-17.93 0-17.941.004-22.151 4.8-2.645 3.014-5.754 4.8-8.356 4.8-4.544 0-10.545-5.008-10.545-8.8 0-4.103-7.527-2.718-13.44 2.475-7.182 6.305-11.54 17.319-9.572 24.183 2.536 8.842 8.4 11.667 25.526 12.296 11.006.405 15.086 1.116 15.086 2.63 0 1.14-1.139 2.51-2.53 3.045-3.421 1.312-30.684.93-36.67-.515zm117.6-1.744c0-1.776 2.575-11.194 5.722-20.928 3.147-9.735 5.33-18.722 4.85-19.97-.593-1.546-3.445-2.272-8.922-2.272-8.762 0-10.38-2.195-5.124-6.952 2.251-2.037 6.139-2.648 16.85-2.648 16.524 0 17.194.73 13.462 14.659-1.377 5.137-1.905 9.341-1.174 9.341.73 0 3.355-2.827 5.832-6.283 10.78-15.038 26.023-15.237 21.542-.28-3.5 11.682-2.375 12.679 5.108 4.528 7.415-8.077 13.232-9.77 17.188-5.004 1.78 2.144 1.648 4.292-.806 13.2-5.432 19.719-5.462 19.439 2.09 19.439 3.62 0 6.582.576 6.582 1.28 0 3.643-4.724 5.12-16.37 5.12-14.194 0-15.259-.894-12.589-10.565.92-3.33 1.32-6.407.89-6.837-.429-.43-4.427 3.31-8.884 8.31-6.391 7.172-9.1 9.092-12.825 9.092-6.22 0-6.953-2.592-3.798-13.444 1.442-4.96 2.36-9.806 2.039-10.768-.321-.962-5.102 4.092-10.625 11.231-9.109 11.775-10.553 12.981-15.54 12.981-4.448 0-5.498-.617-5.498-3.23z"/></svg>